# xmcd
#
# Track frame offsets: 
#        150
#        5514
#        16537
#        30535
#        44497
#        58246
#        70965
#        84305
#        97124
#        106862
#        120058
#        134530
#        148467
#        153170
#        166910
#        193758
#        194576
#        201977
#        209820
#
# Disc length: 3154 seconds
#
# Revision: 2
# Processed by: cddbd v1.5.2PL0 Copyright (c) Steve Scherf et al.
# Submitted via: ExactAudioCopyFreeDBPlugin 1.0
#
DISCID=120c5013
DTITLE=サウンドトラック - ぽけっとKanon&Airサウンドトラック Disc1
DYEAR=1900
DGENRE=Other
TTITLE0=夢と奇跡の物語-Last regrets-
TTITLE1=のどかな日に
TTITLE2=奇跡の始まり-冬影-
TTITLE3=Strawberry Girl
TTITLE4=粉雪を手のひらへ
TTITLE5=The fox which riots
TTITLE6=風の記憶ver.1
TTITLE7=暖かな日差しへ
TTITLE8=冬の登校
TTITLE9=放課後の机で
TTITLE10=Midnight thought music
TTITLE11=羽根の舞う街
TTITLE12=Wings which Escape
TTITLE13=風の記憶ver.2
TTITLE14=白の奇跡-Last regrets-
TTITLE15=勝者
TTITLE16=風の産声
TTITLE17=流れゆく風の中で
TTITLE18=風の辿り着く場所
EXTD=
EXTT0=
EXTT1=
EXTT2=
EXTT3=
EXTT4=
EXTT5=
EXTT6=
EXTT7=
EXTT8=
EXTT9=
EXTT10=
EXTT11=
EXTT12=
EXTT13=
EXTT14=
EXTT15=
EXTT16=
EXTT17=
EXTT18=
PLAYORDER=
